<svg id="Layer_1" xmlns="http://www.w3.org/2000/svg" viewBox="0 0 221.8 56.7"><style>.st0{fill:#03161e}</style><path class="st0" d="M220.5 38.3c-.7.6-1.4 1.2-2.3 1.6-.1 0-.2.1-.3.1-2.1.7-4.2.5-6.1-.8-.9-.6-1.4-1.5-1.5-2.6-.1-.9-.2-1.8-.2-2.8V15.9c0-.5 0-1.1-.1-1.6 0-.8.3-1.3 1-1.5.8-.2 1.6-.5 2.3-.8.2-.1.5-.2.8-.2.3 0 .5.1.6.5V17c0 .7.3.9 1 .9h3.5c.4 0 .9 0 1.3.2v1.2h-4.1c-1.1 0-1.6.6-1.7 1.7v13.5c0 .8 0 1.7.1 2.5.2 1.4 1.5 2.2 2.8 1.6.3-.1.6-.2.8-.5.6-.7 1.3-.7 2-.4.1.2.1.4.1.6zM1.3 22c.2 0 .4 0 .6-.1.6-.3 1.3-.3 1.9-.3h4.8c.6.1 1.1.5 1.2 1.1v5.6c0 .3 0 .7-.2 1-.1.5-.4.7-.8.7h-5c-.6 0-1.2 0-1.8-.3-.2-.1-.4-.1-.6-.1-.1-2.5-.1-5-.1-7.6zM95.2 1.7h7.1c1.1 0 1.2.2 1.2 1.3 0 10.2 0 20.5-.1 30.7v3.8c0 .6.3 1 .9 1h1.2c.2 0 .5 0 .7.1.3.1.5.4.5.7 0 .3-.2.6-.5.7-.2.1-.5.1-.7.1h-5.9c-.7-.1-.9-.3-.9-1v-.8c0-.2-.3-.4-.6-.3-.2.1-.3.2-.4.3-1.1.7-2.2 1.3-3.4 1.8-.8.4-1.7.5-2.6.5-3.5 0-6.2-1.5-8.1-4.2-1.5-2.1-2-4.6-1.8-7.1 0-.7.1-1.3.2-1.9.2-.9.5-1.9.8-2.8.3-.8.7-1.6 1.2-2.3 1.2-1.6 2.6-2.9 4.4-3.8 1.3-.7 2.7-1.1 4.1-1.1 1.7-.1 3.3.3 4.8 1.1.3.1.5.3.8.4.4.2.7 0 .7-.4V5.9c0-.4 0-.8-.1-1.1-.2-.8-.6-1.3-1.5-1.3h-1.3c-.8 0-1-.3-.9-1.1.1-.4.2-.5.2-.7zm3.6 26.7v-6.8c0-.4-.2-.6-.5-.9-1.2-.9-2.6-1.7-4.2-1.9-1.6-.2-3.2.2-4.4 1.3-.5.5-.9 1.1-1.4 1.7-.4.6-.6 1.3-.9 1.9-.3.8-.5 1.6-.6 2.4-.2 1.5-.2 3 0 4.5.2 1.6.7 3.1 1.6 4.4.7 1 1.6 1.9 2.8 2.3 2.6.8 5 .3 7.1-1.5.2-.2.3-.5.4-.7.1-.2 0-.5.1-.7v-6zM66.1 1.8c.1.1.2.2.2.4.3.7.6 1.5.8 2.2.3.9.5 1.9.9 2.8.5 1 .6 2.1 1.1 3.1.4.7.6 1.5.8 2.2.3.9.6 1.9 1 2.8.3 1 .7 1.9 1.1 2.9 0 .1.1.3.1.4.3 1.3.9 2.5 1.3 3.8.4 1 .7 2.1 1.1 3.1.1.3.2.5.3.8l.3.9c.2.4.3.9.5 1.3.2.7.5 1.4.7 2 .3.9.7 1.9 1 2.8l.3.9c.1.3.2.5.3.8.1.6.4 1.2.7 1.7.6 1.1 1.5 1.7 2.7 1.7.4 0 .9 0 1.3.1.3 0 .5.1.8.2.3.1.4.4.3.7 0 .3-.2.5-.5.6-.3.1-.5.1-.8.1H69.7c-.4-.1-.6-.4-.6-.7 0-.4.2-.7.6-.7h2.9c.4-.1.6-.4.5-.8-.2-.6-.4-1.2-.7-1.8-.1-.2-.1-.3-.2-.5-.3-1.1-.7-2.3-1-3.4-.3-1-.6-1.9-.9-2.8-.2-.5-.3-1-.5-1.5-.2-.7-.5-.9-1.2-.9H57.3c-.2.1-.4.2-.6.4-.2.3-.4.6-.6 1-.3.8-.6 1.7-1 2.5l-.3.9c-.1.3-.3.6-.4 1-.1.2-.1.5-.2.7-.4.9-.7 1.7-1.1 2.5-.2.5-.5 1.1-.7 1.6-.1.2-.1.3-.2.5-.1.5.1.8.6.8h3.1c.3 0 .7 0 1 .2.2.2.4.4.3.7 0 .3-.2.5-.5.6-.3.1-.5.1-.8.1h-9.3c-.2 0-.4 0-.6-.1-.3-.1-.6-.3-.6-.6s.2-.7.5-.8c.2-.1.4-.1.6-.1.4 0 .8 0 1.2-.1 1-.1 1.8-.5 2.5-1.3.1-.1.3-.3.4-.5.2-.5.5-1 .7-1.5.2-.7.5-1.4.8-2.1.5-1.1.9-2.2 1.3-3.3.4-.9.6-1.9 1-2.8.4-.8.7-1.7 1-2.5.4-1 .9-2 1.2-3.1.1-.2.2-.4.3-.7.1-.3.3-.7.4-1 .1-.2.1-.3.2-.5.8-1.7 1.4-3.5 2.1-5.2.4-.9.6-1.9 1.2-2.8.3-.6.5-1.2.7-1.8.3-.9.7-1.9 1-2.8.5-.7.6-.9.7-1.1.1-.2.2-.3.2-.5.3-.8.6-1.7.9-2.5v-.1c.5-.9.6-1.2 1.8-.9zm-2.8 23h4.8c.6-.1.9-.4.7-1-.1-.5-.3-.9-.5-1.4l-.3-.9-.9-2.7c-.1-.2-.2-.3-.2-.5-.1-.3-.3-.7-.4-1.1-.1-.4-.3-.7-.4-1.1-.1-.3-.2-.5-.3-.8-.3-1-.7-1.9-1-2.9-.2-.5-.4-1-.5-1.6 0-.2-.1-.3-.1-.5-.1-.2-.3-.4-.6-.4s-.5.1-.6.4c-.1.2-.1.5-.2.7-.1.3-.1.6-.2.9-.2.5-.4 1-.6 1.4-.3.7-.5 1.5-.8 2.2-.4 1-.8 1.9-1.2 2.8-.5 1.2-.9 2.4-1.4 3.5-.2.5-.3 1.1-.7 1.6 0 .1-.1.1-.1.2-.1.4.1.7.5.8h.6c1.5.4 3 .4 4.4.4zm107.9-.1V14.2c0-.5.2-.9.6-1.2.1 0 .1-.1.2-.1 1-.4 1.9-.7 2.9-1.1.1 0 .2 0 .3-.1.5 0 .7.2.7.7v.3c0 1.3 0 2.7-.1 4v.3c.1.5.3.8.9.8h12.4c.4.1.6.2.7.6.1.3.1.5.1.8V37c0 .9.2 1.1 1.1 1.1h.8c.2 0 .4.1.6.2.2.2.3.4.3.7-.1.3-.3.5-.6.5s-.5.1-.8.1h-8.2c-.4-.1-.7-.3-.7-.7 0-.3.2-.7.5-.8.2-.1.3-.1.5-.1h.7c.7-.1 1.1-.5 1.2-1.2V21c0-.5-.2-.9-.5-1.3-.3-.3-.6-.6-1-.6h-6.6c-.7.1-1.2.6-1.3 1.4v14c0 .8 0 1.5.1 2.3.2 1.5 1.6 2.2 2.9 1.5.4-.2.7-.5 1-.7.2-.2.4-.3.7-.3.6 0 .9.5.6 1-.1.1-.2.3-.3.4-1.3 1.1-2.8 1.7-4.6 1.5-1-.1-2-.2-2.9-.7-1-.6-1.7-1.4-2-2.5-.3-.9-.4-1.9-.4-2.8.2-3.1.2-6.3.2-9.5zm-17.1 6v6.7c0 .8.3 1 1.1 1.1h.7c.4.1.6.4.6.8 0 .3-.2.6-.5.7h-8c-.3 0-.7-.1-1-.1-.2-.1-.4-.2-.4-.5s.1-.5.4-.7c.2-.1.5-.1.7-.2h.8c.7-.1 1.1-.5 1.2-1.2V21.1c-.1-1-.7-1.5-1.7-1.6-.3 0-.6 0-.9-.1-.4-.1-.5-.7-.2-1 .2-.1.4-.2.5-.3.2-.1.5 0 .7 0h5.3c.6.1.9.3.9.9 0 .3 0 .5-.1.8v.6c0 .3.4.5.7.4.2-.1.3-.2.5-.4 1.4-1.1 3-2 4.7-2.5 1.8-.5 3.6-.4 5.3.6 1.1.6 1.8 1.5 2.2 2.8.5 1.6.7 3.1.7 4.8v11.3c0 .2 0 .4.1.6.1.3.3.5.6.5h.8c.3 0 .6.1.9.1.3.1.5.4.4.7 0 .3-.3.5-.5.5-.3.1-.5.1-.8.1h-7.9c-.3 0-.6 0-.8-.1-.4-.1-.6-.3-.6-.6s.2-.6.5-.7c.3-.1.5-.1.8-.1h.8c.6-.1 1-.5 1.1-1.1V25.4c0-1-.1-1.9-.3-2.9-.4-2.2-3-3.1-4.7-2.3-1.3.6-2.5 1.5-3.6 2.3-.6.4-.8 1-.8 1.7v3.3c-.2 1.1-.2 2.1-.2 3.2zm-15.3-3.5h-6.1c-1.2 0-1.4.2-1.3 1.4.1 1.5.4 3 .9 4.4.5 1.4 1.2 2.8 2.3 3.8 1.5 1.4 3.1 2 5.2 1.7 1.7-.3 3.1-1.1 4.2-2.3.2-.2.4-.5.6-.7.1-.1.3-.3.5-.4.3-.1.6 0 .7.2.2.2.2.4.1.7-.1.1-.1.2-.2.3-1 1.3-2.2 2.4-3.6 3.1-1.2.6-2.5 1.1-3.8 1.1-.9 0-1.7 0-2.6-.2-2.6-.5-4.8-1.7-6.5-3.8-.8-1-1.4-2.2-1.9-3.4-.2-.5-.3-1.1-.4-1.7-.4-2.2-.3-4.4.3-6.5.8-2.4 2.2-4.4 4.4-5.8 2.7-1.7 5.6-2 8.7-1.2 2.1.6 3.8 1.9 4.8 3.9.4.8.9 1.7 1 2.7 0 .3.1.7.2 1 0 .2.1.4.1.6 0 .5-.2.9-.7.9h-.6c-2.1.2-4.2.2-6.3.2zm-2.2-1.5h4.6c.4-.1.7-.4.6-.8-.1-.7-.1-1.5-.5-2.2-.1-.3-.3-.6-.4-.9-.2-.7-.7-1.2-1.1-1.7-.7-.7-1.5-1-2.5-1-.6 0-1.2.1-1.7.2-1.1.2-2 .8-2.7 1.7-.7.8-1 1.8-1.2 2.8-.1.4-.2.8-.2 1.2 0 .6.2.8.8.9h.4c1.3-.2 2.6-.2 3.9-.2zm-25.9-7.8h4.2c.3 0 .6 0 .8.1.3.1.5.4.5.7 0 .3-.2.6-.6.6h-1.4c-1 0-1.1.7-.8 1.2.5.7.6 1.6 1 2.4.4.9.7 1.9 1 2.9.1.2.2.4.2.6.2.4.3.8.5 1.2.4 1 .7 1.9 1.1 2.9l.3.9c.2.6.5 1.3.7 1.9 0 .1.2.2.3.2.1 0 .3-.1.4-.2.2-.3.3-.6.4-1 .4-1 .8-2.1 1.2-3.1.4-.9.7-1.8 1.1-2.6 0-.1.1-.2.1-.3.3-.8.5-1.7.9-2.5.5-1 .7-2 1.2-2.9.2-.2.2-.6.3-.9 0-.3-.2-.5-.4-.6h-1.8c-.4 0-.6-.2-.6-.5 0-.4.2-.7.5-.8.3-.1.6-.1.9-.1h5.4c.2 0 .5 0 .7.1.3.1.5.4.4.7 0 .3-.2.5-.5.6-.2 0-.4 0-.6.1-1.2.2-2.1.9-2.6 2.1-.4 1-.8 1.9-1.2 2.8-.4.9-.7 1.9-1 2.8-.3.7-.6 1.5-.9 2.2-.4 1.1-.9 2.2-1.3 3.3-.2.6-.5 1.3-.8 1.9-.3.8-.7 1.6-1 2.5-.4.9-.7 1.9-1 2.8-.1.3-.3.6-.5.9-.3.3-.7.3-1 0-.2-.3-.4-.6-.5-1-.2-.5-.3-1-.6-1.4-.1-.2-.2-.4-.3-.7-.1-.2-.1-.5-.2-.7-.4-1-.9-2.1-1.3-3.1-.4-.9-.8-1.8-1.1-2.6-.1-.2-.1-.4-.2-.6-.1-.4-.3-.8-.5-1.1 0-.1-.1-.2-.1-.3-.3-.9-.6-1.8-1-2.6-.4-.9-.7-1.9-1.1-2.8-.4-.7-.6-1.5-.9-2.3-.5-1.3-1.4-1.9-2.7-2.1-.2 0-.5-.1-.7-.1-.3-.1-.5-.4-.4-.6 0-.3.2-.5.4-.6.2-.1.5-.1.7-.1 1.4-.2 2.9-.2 4.4-.2zm83.2 18.5v-1.8c0-.4.2-.7.6-.8.5-.1.9.1 1 .6.1.5.1 1 .2 1.4.2 1.5 1.1 2.4 2.5 2.8 1.1.3 2.2.3 3.4.1 1.4-.3 2.3-1.3 2.7-2.7.1-.3.1-.7 0-1-.2-.6-.5-1.1-.9-1.6-.9-1-1.9-1.8-3.1-2.6-1.3-.9-2.7-1.8-3.9-2.9-.8-.7-1.4-1.4-1.9-2.3-.3-.5-.4-1.1-.5-1.7-.1-1 .1-1.9.5-2.8 1.4-2.7 3.7-3.9 6.6-3.9 1.6 0 3.1.3 4.5 1 .7.4 1.1.9 1.1 1.7v2.7c0 .6-.4.8-.9.8-.4 0-.6-.2-.7-.7-.1-.8-.4-1.4-.7-2-.4-.9-1.2-1.4-2.1-1.7-1.1-.3-2.2-.2-3.3 0-.8.2-1.3.7-1.7 1.4-.4.6-.3 1.3.2 1.8.6.6 1.1 1.2 1.8 1.7 1.1.8 2.2 1.5 3.3 2.3 1.1.7 2.1 1.5 3.2 2.3.9.7 1.6 1.6 2 2.7.1.3.2.6.2.9 0 .5 0 1 .1 1.4.1 1.2-.3 2.2-.9 3.2-.3.4-.6.8-1 1.2-1.4 1.4-3.1 2.2-5.1 2.3-1.7.1-3.3 0-4.9-.6l-.9-.3c-.3-.1-.6-.2-.8-.4-.5-.3-.7-.6-.7-1.2.1-.2.1-.8.1-1.3zM31.3 6V3.5c0-.3 0-.6.1-.9.2-.8.4-.9 1.2-1h5.8c.7 0 .9.1 1.1.8.1.2.1.5.1.7v6c-.1.5-.4.8-.8.9-.3.1-.7.1-1 .1h-4.6c-1.5 0-1.8-.4-1.8-1.8-.1-.7-.1-1.5-.1-2.3zm0 19.7v-3.1c.1-.6.5-.9 1-1h5.6c1.2 0 1.6.5 1.6 1.7v5.1c0 .2 0 .4-.1.6-.1.6-.5.9-1.1 1h-5.4c-1.4 0-1.7-.3-1.7-1.8.2-.8.2-1.6.1-2.5.1 0 0 0 0 0zm-9.9-9.9v-3c0-.5.3-.8.8-1 .3-.1.5-.1.8-.1h5.3c1 0 1.4.4 1.4 1.5v5.1c0 .3 0 .6-.1.8-.1.5-.4.8-.9.8h-5.8c-1.2 0-1.5-.4-1.5-1.6v-2.5zm-9.8 10.1v-2.5c0-.3 0-.6.1-.8.1-.5.4-.8 1-.9h5.5c.3 0 .6 0 .8.1.5.1.7.5.8 1v6c-.1.7-.4 1.1-1.2 1.2h-5.4c-1 0-1.6-.3-1.6-1.6v-2.5zM49.7 16v2.6c0 1-.4 1.5-1.5 1.6h-5.3c-1.3 0-1.7-.7-1.6-1.8.1-1.6.1-3.2 0-4.7-.1-1.2.3-1.9 1.7-1.8h5.4c.9.1 1.3.5 1.3 1.4 0 .8-.1 1.7 0 2.7-.1 0 0 0 0 0zM35.5 31.6h2.8c1.1 0 1.4.3 1.5 1.4v6c-.1.4-.3.7-.7.8-.3.1-.7.1-1 .1h-4.8c-.3 0-.6 0-.9-.1-.5-.1-.7-.4-.8-.8v-5.6c0-1.4.2-1.7 1.6-1.7h1.2c.2-.1.6-.1 1.1-.1zm-4.2-15.7v-3.2c.1-.6.3-.8.9-.9h5.6c.3 0 .6 0 .9.1.4.1.7.3.7.8 0 .3.1.5.1.8v4.9c0 .3 0 .6-.1.9-.1.4-.3.6-.7.7-.3.1-.5.1-.8.1h-5.2c-1.4 0-1.6-.3-1.6-1.7v-1.2c.3-.4.3-.9.2-1.3.1 0 .1 0 0 0zm-11.5 20V39c0 .4-.2.7-.6.8-.3.1-.7.2-1 .2h-5.6c-.6-.1-.8-.4-.9-1v-5.7c0-1.2.3-1.4 1.5-1.5h5.2c1.2 0 1.5.3 1.5 1.5v1.3c0 .4-.1.8-.1 1.3zM11.6 16v-3.3c.1-.5.3-.7.8-.8.3 0 .6-.1.9-.1h4.6c.3 0 .6 0 .9.1.5.1.7.3.8.8v5.6c0 1.4-.3 1.6-1.6 1.6h-5.2c-.9 0-1.2-.3-1.2-1.3V16zm17.7 10v3.3c-.1.5-.4.8-.9.8h-5.8c-.8-.1-1.2-.6-1.2-1.4 0-1.2.1-2.4.1-3.6 0-.7 0-1.3-.1-2 0-.7.2-1 .9-1.2.2-.1.5-.1.7-.1h5.3c.5 0 .8.2 1 .7.1.3.1.5.1.8-.1.9-.1 1.8-.1 2.7zm179.1 28.8c-.3-.3-.6-.5-.8-.9-.6-1-1.1-2-1.7-3 0-.1-.1-.2-.2-.3-.2-.2-.4-.3-.6-.3-.3.1-.4.3-.4.5v.7c-.1.8-.1 1.6-.2 2.4 0 .3-.1.7-.4.9-1.1.4-1.4-.2-1.3-1.1.2-2.1.3-4.2.5-6.3v-.3c0-.4.2-.8.6-1 .5-.2.9 0 1.2.5.5.8.9 1.5 1.4 2.3.5.8 1 1.6 1.4 2.4.3.5.7.5 1.1.1.1-.1.2-.2.2-.3.6-1.2 1.5-2.2 2.2-3.3.3-.4.5-.8.8-1.2.1-.1.2-.3.4-.3.5-.3 1 0 1.1.5v.6c.1 1.5.2 3.1.3 4.6 0 .4.1.9.2 1.3 0 .2.1.5.1.7 0 .8-.4 1.1-1.1.9-.2 0-.3-.1-.4-.3-.3-.3-.4-.7-.4-1 0-.7-.1-1.4-.1-2.2 0-.3 0-.6-.1-.8-.1-.3-.4-.5-.7-.3-.2.2-.5.4-.6.7-.5 1-1.3 1.9-1.8 2.8.1.4-.2.7-.7 1zm-65.5.1h-.7c-.6 0-.9-.2-1-.8v-2c0-.4-.3-.6-.7-.7H138c-1.2 0-1.4.3-1.4 1.5v1.2c-.1.9-.5.9-1.3.8-.1 0-.3-.2-.4-.3-.1-.3-.2-.7-.2-1v-6.5c0-.8.7-1.2 1.4-.9.3.1.4.4.4.7V49c0 .5.3.8.8.8h3c.5 0 .7-.3.8-.8v-2c0-.5.2-.8.7-.8h.5c.6 0 .8.3.8.8v6.8c.2.4.1.8-.2 1.1zm50.3 0c-.4-.4-.4-.7-.4-1.1v-7.1c.1-.3.3-.5.6-.5h5.5c.3 0 .6 0 .8.1.3.1.5.3.5.6s-.1.6-.4.7c-.3.1-.5.1-.8.1h-3c-.9 0-1.3.2-1.2 1.4.1.7.3.9 1 .9h3.1c.3.1.5.3.6.6 0 .4-.2.7-.6.7h-3.1c-.7 0-1 .3-1 1 0 .8.3 1.1 1.1 1.1h3.1c.3 0 .6 0 .9.1.3.1.4.4.4.6 0 .4-.3.7-.6.8h-6.2c0 .1-.1 0-.3 0zm-98.1-4.4v-3.8c0-.3.2-.4.5-.5.2 0 .5-.1.7-.1h4.9c.2 0 .5 0 .7.1.3.1.5.3.5.5 0 .3-.1.6-.4.7-.3.1-.5.1-.8.1h-3.4c-.5.1-.7.3-.8.8v.2c0 .8.1 1.4 1.2 1.3h2.2c.2 0 .5 0 .7.1.3.1.5.3.5.7 0 .3-.2.6-.5.7h-3.4c-.1 0-.3.1-.4.1-.4.3-.4.7-.3 1.1 0 .4.2.8.6.9.2.1.5 0 .7 0h3c.3 0 .6 0 .8.1.3.1.5.4.5.7 0 .4-.3.7-.6.7h-6.4c-.2 0-.4-.2-.5-.4-.1-.3-.1-.7-.1-1 .1-1 .1-2 .1-3zm80.5 4.5h-.9c-.6 0-1.1 0-1.6-.4-.3-.2-.6-.3-.9-.4-.4-.2-.5-.5-.4-.8.1-.4.4-.6.9-.6.4.1.8.2 1.2.4.9.4 1.8.5 2.7.3.5-.1.9-.3 1.3-.6s.4-.8 0-1.1c-.3-.2-.7-.3-1-.4-.8-.2-1.6-.3-2.3-.4-.4-.1-.7-.1-1.1-.2-.6-.1-1-.5-1.4-.9-.2-.2-.3-.5-.3-.7-.2-1.3.4-2.3 1.7-2.8 1.7-.6 3.5-.5 5.2.1.3.1.6.3.8.4.2.1.3.4.3.6 0 .3-.3.5-.6.5s-.5 0-.8-.1c-.6-.1-1.1-.3-1.7-.4-.9-.2-1.7 0-2.5.3-.2.1-.3.2-.4.3-.3.3-.2.8.1 1 .2.1.4.2.7.3.7.1 1.3.2 2 .4.5.1 1.1.1 1.6.3.8.2 1.5.7 1.8 1.5.4 1.1-.2 2.3-.9 2.7-.4.2-.8.5-1.2.7-.2.1-.4.1-.6.1-.6-.1-1.1-.1-1.7-.1zm-20.9 0h-.9c-.6 0-1.1 0-1.5-.4-.2-.2-.6-.2-.8-.4-.4-.2-.6-.6-.5-.9.1-.4.5-.6.9-.5.4.1.7.2 1.1.4.8.4 1.6.5 2.5.3.5-.1 1-.3 1.4-.6.5-.4.4-1.1-.1-1.4-.2-.1-.5-.2-.8-.2-1.1-.2-2.2-.4-3.2-.6-.6-.1-1.1-.5-1.6-.9-.6-.5-.6-1.8-.1-2.4.5-.6 1-1 1.7-1.2 1.6-.4 3.3-.3 4.9.2l.6.3.3.3c.1.3.1.5 0 .8-.2.2-.4.3-.6.2-.6-.2-1.2-.3-1.8-.5-1-.3-1.9-.2-2.8.2-.1 0-.2.1-.3.1-.5.3-.4 1 .1 1.3.2.1.3.1.5.2.7.1 1.4.3 2.1.4.5.1.9.1 1.4.2 1 .2 1.6.9 2 1.7.2.4.2.8 0 1.2-.1.1-.1.2-.2.4-.8 1.2-1.8 1.8-3.2 1.8h-1.1zm-62.4-4.5v3.6c-.1.7-.4.9-1.1.9-.3 0-.6-.2-.6-.4-.1-.4-.1-.7-.1-1.1v-1.1c0-.5-.3-.7-.8-.8H87c-.9 0-1.2.4-1.1 1.2 0 .2 0 .5.1.7v.6c-.1.9-.7 1.3-1.5 1-.1-.1-.3-.2-.3-.4-.2-.4-.2-.7-.2-.9v-6.6c0-.2 0-.3.1-.5s.2-.4.5-.5h.7c.5.1.8.4.7.9 0 .5-.1 1.1-.1 1.6 0 .8.3 1.1 1.1 1.1h2.6c.6-.1.9-.3.9-.9v-1.8c0-.8.9-1.2 1.6-.8.2.1.3.3.3.5.1.1 0 .3 0 .4-.1 1.1-.1 2.2-.1 3.3zm20.5 4.5c-.3-.5-.7-1-.9-1.4-.2-.4-.6-.6-1.1-.6h-2.5c-.5 0-.8.2-1 .5l-.6.9c-.1.2-.2.4-.4.7h-.9c-.4 0-.5-.3-.4-.7.1-.4.3-.7.4-1 .5-1 .9-2 1.4-3l.9-1.8c.2-.4.3-.7.5-1.1.1-.3.3-.5.5-.8.5-.6 1.2-.6 1.7-.1.1.1.3.3.4.5.3.7.6 1.4 1 2.2.4.8.8 1.6 1.1 2.4.4.7.7 1.5 1.1 2.2.1.2.2.5.2.7 0 .3-.1.5-.4.5-.3-.1-.6-.1-1-.1zm-3.2-3.5c.3 0 .6 0 .9-.1.2-.1.4-.3.3-.5-.2-.6-.4-1.2-.7-1.8-.2-.5-.9-.4-1.1.1-.2.5-.4.9-.6 1.4-.2.4.1.8.5.8.2.1.4.1.7.1zm19.3 3.4h-.7c-.6 0-.8-.2-.9-.8v-5.7c-.1-.6-.3-.8-.8-.8h-1.4c-.3 0-.6 0-.9-.1-.2-.1-.4-.3-.5-.5-.1-.3.1-.7.4-.7.2-.1.4-.1.6-.1h7.7c.3.1.5.2.5.5s-.1.6-.4.7c-.2.1-.5.1-.7.1h-1.4c-.8 0-1 .2-1 1.1v4.8c-.1.5-.1 1-.5 1.5zm57.3-8.8h3.9c.3 0 .6.3.6.6 0 .4-.2.7-.6.8h-1.8c-1 0-1.2.3-1.2 1.2v4.6c0 .4 0 .8-.1 1.1 0 .2-.2.4-.5.4-.9.1-1.3-.2-1.3-1.2 0-1.5 0-3.1.1-4.6v-.6c0-.6-.3-.9-.9-.9H183c-.3 0-.5-.1-.8-.2-.3-.1-.4-.4-.4-.7 0-.3.2-.5.5-.6.3-.1.5-.1.8-.1 1 .2 2 .2 3.1.2zm-62.3 8.8h-6.3c-.8 0-1-.3-1.1-1v-6.7c0-.9.7-1.4 1.5-1 .2.1.3.3.4.4.1.1.1.3.1.5 0 1.6 0 3.2-.1 4.8v.5c.1.5.3.8.8.8h3.9c.4 0 .8 0 1 .4.2.5.2.7-.2 1.3zm38-8.8c.7-.1 1.1.3 1.5.8.4.5.7 1.1 1.1 1.6.2.3.4.6.6.8.3.3.6.3.9 0 .2-.2.3-.4.5-.7.4-.6.7-1.2 1-1.8.3-.5.8-.8 1.4-.8.5 0 .8.4.5.8-.3.5-.6.9-.9 1.3-.6.8-1.2 1.7-1.7 2.6-.3.5-.5 1-.4 1.6 0 .3 0 .7.1 1v.4c0 .9-.7 1.4-1.6 1.1-.1 0-.2-.2-.3-.3-.1-.3-.1-.5-.2-.8v-1.5c0-.5-.1-.9-.4-1.4-.8-1.2-1.7-2.4-2.5-3.7-.1-.1-.2-.3-.3-.4-.2-.4 0-.7.4-.7.1.1.2.1.3.1zM187.6 12c-1.5 0-2.8-1.2-2.8-2.6 0-1.4 1.3-2.6 2.7-2.7 1.3 0 2.6 1.2 2.7 2.6.1 1.5-1.3 2.8-2.6 2.7z"/></svg>