<svg id="Layer_1" xmlns="http://www.w3.org/2000/svg" viewBox="0 0 170.1 55.1"><style>.st0{fill:#03161e}</style><path class="st0" d="M53.4 36.1h-9.7c-.7 0-1 .3-1 1V51c0 1.2.5 1.7 1.7 1.7H51c2.1 0 2.3-.3 2.3-2.4V38.2c0-.4.1-.8.1-1.1.1 0 .2 0 .3-.1l.6.9c2.1 3.7 4.2 7.5 6.2 11.2 1 1.9 2.6 3.2 4.7 3.4 2.2.2 4.5.2 6.8.2 1.8 0 2.3-.4 2.3-2.2V37.2c0-.8-.2-1-1-1H66c-.3 0-.8 0-.9-.2-.5-.7-.9-1.6-1.4-2.5.5-.1.7-.1 1-.1h7.1c2.6 0 2.6 0 2.6-2.5V19.2c0-1.8-.5-2.3-2.3-2.3h-6.5c-1.5 0-2 .5-2 1.9v12.5c0 .4-.1.8-.1 1.1-.1 0-.2 0-.3.1l-.6-.9c-2.1-3.7-4.1-7.4-6.2-11.1-1.1-2-2.8-3.2-5-3.4-2.2-.2-4.5-.2-6.8-.2-1.4 0-1.9.5-1.9 1.8v13.7c0 .8.3 1 1 1h7.1c.4 0 .9 0 1 .3.6.5 1 1.4 1.6 2.4zM140.8 1c-1.7.4-3.5.6-5.2 1.2-10.3 3.6-13.4 17.4-5.7 25 1.7 1.6 3.6 2.9 5.9 3.3 1.5.2 2.2-.5 1.9-2-.2-.9-.7-1.7-1.1-2.5-.4-1-1-2-1.2-3-.7-2.8 1.3-5.7 4.2-6.4 2.6-.6 5.8 1.2 6.5 3.8.6 2 0 3.8-1 5.6-.5.9-1 1.8-1.2 2.8-.3 1.3.4 2 1.8 1.8.8-.1 1.5-.4 2.2-.7 5.4-2.3 8.8-8.8 8-15.2-.8-7.3-7.2-13.6-15.1-13.7zM98.9 36.2c-.3-.1-.4-.1-.5-.1H85.8c-.4 0-.8.3-1.1.6-1.2 1.5-2.3 3.1-3.5 4.5-2.4 2.7-3.4 5.9-3.1 9.5.1 1.3.5 1.8 1.8 1.8h26.9c1.2 0 1.7-.5 1.8-1.8V45c0-1.6-.5-2.1-2.1-2.1H95.2c-.4 0-.8-.1-1.4-.1 1.8-2.2 3.4-4.3 5.1-6.6zm-11.4-3.1c.2.1.3.1.4.1h12.7c.3 0 .8-.3 1-.6 1.2-1.6 2.3-3.2 3.6-4.7 2.4-2.7 3.3-5.7 3-9.3-.1-1.4-.6-1.9-2-1.9h-26c-1.4 0-1.9.5-1.9 1.9v5.7c0 1.4.5 1.9 1.9 1.9H91c.4 0 .8 0 1.5.1-1.7 2.4-3.4 4.6-5 6.8zM134.6 45c-.3-1.6-.5-3.3-1-4.8-2.2-6.2-8.9-10.3-15.5-9.4-1.4.2-2.8.8-4.1 1.5-1.6.9-1.8 2.6-.7 4 .9 1.2 1.9 2.4 2.9 3.6 3.7 4.4 7.3 8.7 11 13 1.1 1.3 2.3 1.4 3.7.4.4-.3.8-.7 1.1-1 1.9-2.1 2.4-4.6 2.6-7.3zm34.5-10c0-1.5-.6-2.3-1.5-2.9-2.2-1.5-4.8-1.6-7.3-1.3-6.9.8-13.9 7.1-12.8 15.9.3 2.6 1.1 5 3.3 6.7 1.4 1 2.6.9 3.7-.4.9-1.1 1.9-2.2 2.8-3.3 3.7-4.4 7.4-8.8 11-13.3.4-.4.6-1.1.8-1.4zm-133-1.8v-.7c-.8-4.8-1.7-9.5-2.5-14.3-.2-1-.9-1.4-1.8-1.5h-3.2c-4.1 0-7.2 1.7-9.4 5.2-1.8 2.8-3.5 5.6-5.3 8.4-.5.9-1.1 1.8-1.7 2.8 8 .1 15.9.1 23.9.1zm-13.3 3.1c-.2-.1-.2-.2-.3-.2H10.9c-.3 0-.7.3-.9.5-2.9 4.6-5.8 9.2-8.7 13.9-.7 1.2-.2 2.1 1.2 2.1 2.6 0 5.3-.1 7.9 0 1.5 0 2.5-.6 3.3-1.8 2.1-3.4 4.2-6.8 6.4-10.2.9-1.4 1.8-2.9 2.7-4.3zm8.1-.2h-5.1c-.5 0-.9 0-.7.7.9 4.8 1.7 9.5 2.6 14.3.2 1 .7 1.5 1.8 1.5h8.3c1.3 0 1.8-.7 1.6-2L37 37.1c-.1-.8-.5-1-1.2-1h-4.9z"/><path class="st0" d="M53.4 36.1c-.6-1-1-1.8-1.5-2.6-.2-.2-.7-.3-1-.3h-7.1c-.8 0-1-.2-1-1V18.5c0-1.4.5-1.8 1.9-1.8 2.3 0 4.5 0 6.8.2s3.9 1.4 5 3.4c2 3.7 4.1 7.4 6.2 11.1l.6.9c.1 0 .2 0 .3-.1 0-.4.1-.8.1-1.1V18.6c0-1.5.5-1.9 2-1.9h6.5c1.8 0 2.3.5 2.3 2.3v11.7c0 2.5 0 2.5-2.6 2.5h-7.1c-.3 0-.5.1-1 .1.5.9.9 1.7 1.4 2.5.1.2.6.2.9.2h7.3c.8 0 1 .3 1 1v13.3c0 1.8-.5 2.3-2.3 2.2-2.3 0-4.5 0-6.8-.2-2.1-.2-3.7-1.5-4.7-3.4-2.1-3.8-4.2-7.5-6.2-11.2l-.6-.9c-.1 0-.2 0-.3.1 0 .4-.1.8-.1 1.1v12.1c0 2.1-.3 2.4-2.3 2.4h-6.6c-1.2 0-1.7-.4-1.7-1.7V36.9c0-.7.2-1 1-1h8.3c.3.2.6.2 1.3.2zM140.8 1c7.9.1 14.3 6.4 15.2 13.6.8 6.4-2.6 12.9-8 15.2-.7.3-1.5.5-2.2.7-1.3.2-2-.5-1.8-1.8.2-1 .7-1.9 1.2-2.8 1-1.8 1.6-3.6 1-5.6-.7-2.6-3.8-4.4-6.5-3.8-3 .7-4.9 3.6-4.2 6.4.3 1 .8 2 1.2 3 .4.8.9 1.6 1.1 2.5.4 1.4-.4 2.2-1.9 2-2.4-.4-4.3-1.6-5.9-3.3-7.8-7.6-4.6-21.4 5.7-25 1.6-.5 3.4-.7 5.1-1.1zM98.9 36.2c-1.7 2.3-3.3 4.4-5.1 6.8.6.1 1 .1 1.4.1h11.3c1.6 0 2.1.5 2.1 2.1v5.7c0 1.2-.5 1.8-1.8 1.8H79.9c-1.3 0-1.7-.5-1.8-1.8-.2-3.6.7-6.7 3.1-9.5 1.3-1.4 2.3-3.1 3.5-4.5.2-.3.7-.6 1.1-.6h12.6c.2-.2.3-.2.5-.1zm-11.4-3.1c1.7-2.2 3.3-4.4 5.1-6.8-.7 0-1.1-.1-1.5-.1H80.3c-1.4 0-1.9-.5-1.9-1.9v-5.7c0-1.4.5-1.9 1.9-1.9h26c1.4 0 1.8.5 2 1.9.3 3.5-.6 6.6-3 9.3-1.3 1.5-2.4 3.2-3.6 4.7-.2.3-.6.6-1 .6H88c-.2 0-.3 0-.5-.1zM134.6 45c-.2 2.7-.7 5.2-2.5 7.3-.3.4-.7.7-1.1 1-1.4 1-2.6.9-3.7-.4-3.7-4.3-7.3-8.7-11-13-1-1.2-2-2.4-2.9-3.6-1.1-1.5-.9-3.1.7-4 1.2-.7 2.7-1.3 4.1-1.5 6.5-.8 13.3 3.3 15.5 9.4.4 1.6.6 3.2.9 4.8zm34.5-10c-.2.3-.4 1-.8 1.5-3.7 4.4-7.3 8.8-11 13.3-.9 1.1-1.9 2.2-2.8 3.3-1.1 1.3-2.3 1.4-3.7.4-2.2-1.7-3-4-3.3-6.7-1.1-8.8 5.9-15.1 12.8-15.9 2.5-.3 5.1-.2 7.3 1.3.9.5 1.5 1.3 1.5 2.8zm-133-1.8H12.2c.6-1 1.1-1.9 1.7-2.8 1.8-2.8 3.5-5.6 5.3-8.4 2.2-3.5 5.3-5.2 9.4-5.2h3.2c1 0 1.7.5 1.8 1.5.9 4.8 1.7 9.5 2.5 14.3v.6zm-13.3 3.1c-.9 1.4-1.8 2.9-2.7 4.3-2.1 3.4-4.3 6.8-6.4 10.2-.7 1.2-1.7 1.8-3.3 1.8-2.6-.1-5.3 0-7.9 0-1.4 0-1.9-.9-1.2-2.1C4.2 45.9 7 41.3 10 36.6c.2-.3.6-.5.9-.5h11.6c.1 0 .1.1.3.2zm8.1-.2h4.8c.7 0 1.1.2 1.2 1 .7 4.5 1.6 9 2.4 13.5.2 1.3-.3 2-1.6 2h-8.3c-1 0-1.6-.5-1.8-1.5-.9-4.8-1.7-9.5-2.6-14.3-.1-.7.3-.7.7-.7h5.2z"/></svg>